<svg viewBox="0 0 360 360" class="w-6 h-6" fill="currentColor">
<path
  fill="currentColor"
  opacity="1.000000"
  stroke="none"
  d="
M228.734680,39.534744 
C227.623749,37.762283 226.512833,35.989819 224.822037,33.292183 
C230.610809,35.154377 235.550568,36.743450 240.490326,38.332523 
C240.699539,37.925056 240.908752,37.517590 241.117981,37.110123 
C230.850235,26.165077 218.649811,17.970161 204.443787,12.629079 
C204.555023,12.206735 204.666245,11.784389 204.777466,11.362045 
C209.471344,12.294826 214.309708,12.778678 218.835052,14.235113 
C243.474380,22.165039 263.531708,36.444782 279.183533,57.242970 
C282.726990,61.951530 288.465515,65.130943 293.510590,68.545937 
C297.213928,71.052689 297.123077,72.537842 293.961823,75.646324 
C290.720703,78.833305 288.507294,83.065445 285.844086,86.840149 
C286.364807,87.335838 286.885529,87.831528 287.406250,88.327217 
C289.689850,86.995667 291.973419,85.664116 294.812469,84.008675 
C294.722321,95.722527 298.106171,106.017693 302.988495,115.856537 
C303.874023,117.640984 305.642731,118.987152 307.080383,120.622879 
C305.592285,125.807480 303.919250,131.794479 302.122131,137.744003 
C301.818756,138.748367 301.108276,139.713272 300.368011,140.488297 
C296.294983,144.752640 292.154236,148.952301 288.318390,152.885345 
C282.315399,150.470856 275.617767,147.822189 268.970520,145.052582 
C268.017090,144.655350 267.004181,143.833923 266.531952,142.938248 
C262.662140,135.598038 257.594360,129.407928 249.910965,125.381958 
C251.295959,124.072655 252.470184,122.962608 254.124969,121.398254 
C247.353180,113.618118 240.731888,105.981819 234.057053,98.392616 
C233.468781,97.723770 232.530441,97.362808 230.519547,96.056412 
C231.769913,98.653206 232.416016,99.995026 233.425522,102.091591 
C227.082535,98.886246 221.196594,96.431587 215.953491,92.995880 
C213.971924,91.697388 213.405212,88.162170 212.322891,85.592079 
C211.359100,83.303505 210.573883,80.939735 209.261185,77.398903 
C208.153717,82.145180 207.296646,85.818306 206.362961,89.819847 
C174.931915,80.821602 146.235458,86.557289 120.965569,106.910751 
C99.195000,124.445709 87.992325,147.804001 86.534096,175.720749 
C83.867882,226.763626 123.781708,272.995941 179.637711,274.057251 
C210.152145,274.637054 235.084076,262.501312 254.080276,238.996796 
C273.005310,215.580322 278.929199,188.665909 272.904785,159.070343 
C280.993652,177.171616 280.611298,195.860535 277.590210,215.095840 
C279.752716,209.874802 281.915253,204.653778 284.077759,199.432755 
C284.525177,199.514557 284.972595,199.596359 285.420044,199.678146 
C284.210144,207.887802 283.756165,216.304535 281.579742,224.249435 
C279.362549,232.343201 276.007202,240.262375 272.123688,247.723709 
C268.274994,255.118149 263.146057,261.846252 257.819946,270.032715 
C262.002411,267.684723 265.201782,265.888611 268.398895,264.088379 
C268.673737,280.704712 223.113815,303.298523 189.325424,303.296814 
C193.322372,307.032074 201.428375,308.844269 219.502731,310.043396 
C196.371277,320.583710 148.111145,321.560120 108.081230,296.713989 
C77.541664,277.758453 52.730507,246.178696 43.494297,202.762344 
C42.921207,211.010193 42.348114,219.258026 41.775021,227.505875 
C41.291229,227.607925 40.807434,227.709976 40.323639,227.812042 
C37.886108,218.306000 34.654346,208.924789 33.137444,199.274048 
C21.620066,125.998695 62.440002,58.097904 132.440598,33.715538 
C148.779663,28.024370 165.706253,24.991293 182.972916,26.216288 
C188.213593,26.588089 193.245453,30.332724 198.297607,32.693752 
C200.012177,33.495022 201.495071,34.792042 203.431946,35.375298 
C194.084015,23.589190 181.811157,15.707442 168.557175,9.001170 
C191.505341,12.837815 210.676422,23.818058 227.505341,40.391891 
C228.118835,41.133942 228.379272,41.433010 228.639709,41.732079 
C228.671371,40.999634 228.703033,40.267189 228.734680,39.534744 
M259.085968,80.422623 
C255.477890,77.406532 251.869827,74.390442 248.535431,71.603134 
C246.030487,75.393028 244.116455,78.288857 242.308136,81.024780 
C249.545898,83.581787 256.695465,86.107620 265.263519,89.134598 
C262.859741,85.696495 261.205292,83.330116 259.085968,80.422623 
M258.056244,269.342377 
C257.476532,269.384338 256.896790,269.426270 256.317078,269.468201 
C256.724854,269.613007 257.132660,269.757812 258.056244,269.342377 
z"
></path>
<path
  fill="currentColor"
  opacity="1.000000"
  stroke="none"
  d="
M109.130692,180.933167 
C109.555008,142.214340 137.674576,111.572639 175.471222,108.163391 
C212.192566,104.851135 245.518524,130.546356 252.621811,167.648590 
C260.678741,209.732010 227.573471,250.801743 184.562607,252.081482 
C143.262222,253.310333 110.364120,222.479843 109.130692,180.933167 
M189.843887,139.659485 
C186.135864,135.841766 182.595520,134.794525 177.473129,138.105118 
C167.591812,144.491425 157.134674,149.981125 147.073730,156.101410 
C145.596390,157.000122 144.135468,159.302505 144.103836,160.982452 
C143.859573,173.956757 143.825089,186.941010 144.123627,199.913040 
C144.168732,201.873032 145.806320,204.552429 147.506714,205.594193 
C157.689163,211.832382 168.163025,217.592789 178.409927,223.729233 
C181.624725,225.654449 184.239609,225.765213 187.517303,223.790787 
C197.746765,217.628754 208.087036,211.641235 218.532959,205.854294 
C221.311630,204.314941 222.132538,202.503922 222.086426,199.515991 
C221.937561,189.867310 222.061264,180.214783 222.020081,170.563980 
C221.994125,164.483368 223.545959,157.909576 217.088715,153.688446 
C216.999130,153.629868 217.040268,153.371338 217.777695,152.989822 
C220.676910,152.198959 223.576126,151.408096 226.475342,150.617233 
C208.891281,148.462723 199.715988,138.322021 198.536865,121.891983 
C195.750626,127.972038 192.916061,134.157516 189.843887,139.659485 
z"
></path>
<path
  fill="currentColor"
  opacity="1.000000"
  stroke="currentColor"
  d="
M217.020386,153.206131 
C217.040268,153.371338 216.999130,153.629868 217.088715,153.688446 
C223.545959,157.909576 221.994125,164.483368 222.020081,170.563980 
C222.061264,180.214783 221.937561,189.867310 222.086426,199.515991 
C222.132538,202.503922 221.311630,204.314941 218.532959,205.854294 
C208.087036,211.641235 197.746765,217.628754 187.517303,223.790787 
C184.239609,225.765213 181.624725,225.654449 178.409927,223.729233 
C168.163025,217.592789 157.689163,211.832382 147.506714,205.594193 
C145.806320,204.552429 144.168732,201.873032 144.123627,199.913040 
C143.825089,186.941010 143.859573,173.956757 144.103836,160.982452 
C144.135468,159.302505 145.596390,157.000122 147.073730,156.101410 
C157.134674,149.981125 167.591812,144.491425 177.473129,138.105118 
C182.595520,134.794525 186.135864,135.841766 189.832794,140.299500 
C182.786255,144.507050 175.750809,148.074600 169.650391,151.168015 
C184.828629,152.050705 195.110489,160.477554 197.757507,178.019257 
C200.804733,166.634338 204.390961,156.311172 217.020386,153.206131 
z"
></path>
</svg>